<svg width="19" height="18" viewBox="0 0 19 18" fill="none" xmlns="http://www.w3.org/2000/svg">
<g id="google">
<path id="vector" d="M17.3758 9.17493C17.3758 8.52743 17.3222 8.05493 17.2061 7.56494H9.6615V10.4874H14.09C14.0008 11.2137 13.5186 12.3074 12.4472 13.0424L12.4322 13.1402L14.8176 14.9513L14.9829 14.9674C16.5007 13.5937 17.3758 11.5724 17.3758 9.17493Z" fill="#4285F4"/>
<path id="vector_2" d="M9.66098 16.8751C11.8306 16.8751 13.652 16.175 14.9824 14.9675L12.4467 13.0425C11.7681 13.5062 10.8574 13.83 9.66098 13.83C7.53601 13.83 5.73246 12.4563 5.08954 10.5575L4.9953 10.5653L2.51486 12.4466L2.48242 12.535C3.80383 15.1075 6.51811 16.8751 9.66098 16.8751Z" fill="#34A853"/>
<path id="vector_3" d="M5.08998 10.5575C4.92034 10.0675 4.82216 9.54245 4.82216 8.99997C4.82216 8.45744 4.92034 7.93246 5.08106 7.44247L5.07656 7.33811L2.56503 5.42664L2.48285 5.46494C1.93824 6.53245 1.62573 7.73123 1.62573 8.99997C1.62573 10.2687 1.93824 11.4674 2.48285 12.5349L5.08998 10.5575Z" fill="#FBBC05"/>
<path id="vector_4" d="M9.66103 4.16998C11.1699 4.16998 12.1878 4.80873 12.7682 5.34251L15.036 3.1725C13.6432 1.90375 11.8306 1.125 9.66103 1.125C6.51814 1.125 3.80384 2.89249 2.48242 5.46497L5.08063 7.44249C5.73248 5.54375 7.53604 4.16998 9.66103 4.16998Z" fill="#EB4335"/>
</g>
</svg>
