<svg width="179" height="170" viewBox="0 0 179 170" fill="none" xmlns="http://www.w3.org/2000/svg">
<path fill-rule="evenodd" clip-rule="evenodd" d="M1.80366 121.952C2.49966 121.704 3.23207 121.374 3.79687 120.897C4.46767 120.33 4.74048 119.6 4.92368 118.832C5.15888 117.844 5.25286 116.793 5.53806 115.804C5.64366 115.437 5.84688 115.298 5.93408 115.236C6.15448 115.081 6.37726 115.039 6.58686 115.055C6.83526 115.073 7.17648 115.167 7.40088 115.583C7.43288 115.643 7.47447 115.734 7.50247 115.858C7.52287 115.949 7.53607 116.234 7.55767 116.352C7.61167 116.642 7.65687 116.931 7.69927 117.222C7.84047 118.192 7.92168 119.015 8.36767 119.905C8.97288 121.114 9.57928 121.854 10.4017 122.181C11.1969 122.498 12.1477 122.438 13.3625 122.19C13.4781 122.162 13.5925 122.138 13.7057 122.118C14.2413 122.025 14.7533 122.376 14.8585 122.91C14.9637 123.443 14.6233 123.963 14.0925 124.08C13.9817 124.104 13.8725 124.128 13.7645 124.149C12.1229 124.555 10.2225 126.006 9.11807 127.276C8.77767 127.667 8.27927 128.762 7.77087 129.46C7.39567 129.976 6.97407 130.315 6.62007 130.435C6.38287 130.516 6.18288 130.504 6.01767 130.463C5.77768 130.404 5.57848 130.274 5.42568 130.067C5.34248 129.954 5.26527 129.802 5.22847 129.608C5.21087 129.515 5.20888 129.278 5.20928 129.171C5.10568 128.815 4.97887 128.467 4.88647 128.107C4.66607 127.249 4.23367 126.706 3.72007 125.988C3.23967 125.317 2.72368 124.895 1.96728 124.558C1.86888 124.534 1.07488 124.34 0.794482 124.228C0.384882 124.064 0.189671 123.79 0.118871 123.643C-0.0015287 123.392 -0.0139178 123.174 0.0100822 122.991C0.0456822 122.722 0.166483 122.492 0.380883 122.306C0.513683 122.19 0.712085 122.078 0.977685 122.023C1.18288 121.98 1.72726 121.955 1.80366 121.952ZM6.46167 120.553C6.49847 120.635 6.53767 120.718 6.57927 120.801C7.46567 122.571 8.45687 123.56 9.66167 124.039L9.70208 124.055C8.89607 124.653 8.16646 125.322 7.60886 125.963C7.37926 126.227 7.07527 126.776 6.74687 127.338C6.44847 126.368 5.96047 125.682 5.34687 124.824C4.87807 124.17 4.38688 123.677 3.78328 123.275C4.25168 123.035 4.69847 122.753 5.08767 122.424C5.73567 121.877 6.16407 121.242 6.46167 120.553Z" fill="#E2F284"/>
<circle cx="19.5" cy="3.90293" r="3.9" fill="#E2F284"/>
<circle cx="174.85" cy="85.152" r="3.9" fill="#E2F284"/>
<path d="M83.85 148.203C124.774 148.203 157.95 115.027 157.95 74.1029C157.95 33.1786 124.774 0.00292969 83.85 0.00292969C42.9257 0.00292969 9.75 33.1786 9.75 74.1029C9.75 115.027 42.9257 148.203 83.85 148.203Z" fill="url(#paint0_linear_549_1789)"/>
<path fill-rule="evenodd" clip-rule="evenodd" d="M83.525 29.25C91.6022 29.25 98.15 22.7022 98.15 14.625C98.15 6.54784 91.6022 0 83.525 0C75.4479 0 68.9 6.54784 68.9 14.625C68.9 22.7022 75.4479 29.25 83.525 29.25ZM83.2 22.7499C87.5078 22.7499 91 19.2577 91 14.9499C91 10.6421 87.5078 7.14991 83.2 7.14991C78.8922 7.14991 75.4 10.6421 75.4 14.9499C75.4 19.2577 78.8922 22.7499 83.2 22.7499Z" fill="black"/>
<path d="M83.2326 132.018C99.0458 132.018 111.865 119.199 111.865 103.385C111.865 87.5721 99.0458 74.7529 83.2326 74.7529C67.4193 74.7529 54.6001 87.5721 54.6001 103.385C54.6001 119.199 67.4193 132.018 83.2326 132.018Z" fill="url(#paint1_linear_549_1789)"/>
<path d="M128.549 82.0945V60.1277C128.549 48.1459 123.789 36.6548 115.316 28.1824C106.844 19.71 95.3529 14.9502 83.3711 14.9502C71.3892 14.9502 59.8982 19.71 51.4257 28.1824C42.9533 36.6548 38.1936 48.1459 38.1936 60.1277V82.0945C38.1941 87.1412 36.7664 92.085 34.0756 96.3545C31.3848 100.624 27.5407 104.045 22.9876 106.222C21.9411 106.72 21.0577 107.505 20.4403 108.486C19.8229 109.467 19.4968 110.603 19.5 111.763V111.882C19.4992 112.3 19.581 112.715 19.7407 113.102C19.9003 113.489 20.1348 113.841 20.4305 114.137C20.7262 114.433 21.0775 114.668 21.4642 114.829C21.8509 114.989 22.2654 115.072 22.6841 115.072H144.052C144.471 115.072 144.885 114.989 145.272 114.829C145.659 114.668 146.01 114.433 146.306 114.137C146.601 113.841 146.836 113.489 146.995 113.102C147.155 112.715 147.237 112.3 147.236 111.882V111.763C147.237 110.607 146.91 109.475 146.294 108.498C145.677 107.52 144.797 106.737 143.755 106.24C139.199 104.061 135.353 100.638 132.662 96.3648C129.971 92.0919 128.545 87.1442 128.549 82.0945Z" fill="#E1DCEB"/>
<path fill-rule="evenodd" clip-rule="evenodd" d="M147.55 115.049H19.5V111.149H147.55V115.049Z" fill="black"/>
<path d="M119.6 56.5484C129.652 56.5484 137.8 48.4 137.8 38.3485C137.8 28.2969 129.652 20.1484 119.6 20.1484C109.548 20.1484 101.4 28.2969 101.4 38.3485C101.4 48.4 109.548 56.5484 119.6 56.5484Z" fill="white"/>
<path d="M115.05 38.3414C115.05 36.7271 115.419 35.458 116.157 34.5342C116.905 33.6103 118.053 33.1484 119.6 33.1484C121.137 33.1484 122.279 33.615 123.028 34.5482C123.776 35.472 124.15 36.7364 124.15 38.3414C124.15 39.9558 123.776 41.2295 123.028 42.1627C122.279 43.0865 121.137 43.5484 119.6 43.5484C118.053 43.5484 116.905 43.0865 116.157 42.1627C115.419 41.2295 115.05 39.9558 115.05 38.3414ZM120.829 38.3414C120.829 37.5949 120.748 37.035 120.586 36.6618C120.424 36.2792 120.095 36.0879 119.6 36.0879C119.094 36.0879 118.761 36.2792 118.599 36.6618C118.437 37.035 118.356 37.5949 118.356 38.3414C118.356 39.0973 118.437 39.6665 118.599 40.0491C118.761 40.4224 119.094 40.609 119.6 40.609C120.095 40.609 120.424 40.4224 120.586 40.0491C120.748 39.6665 120.829 39.0973 120.829 38.3414Z" fill="black"/>
<path fill-rule="evenodd" clip-rule="evenodd" d="M48.1703 124.996C45.0565 127.812 41.9514 130.571 38.921 133.476C38.2668 134.099 38.2422 135.126 38.8611 135.773C39.482 136.426 40.5144 136.446 41.1625 135.826C44.1783 132.939 47.2563 130.202 50.3494 127.406C51.0158 126.8 51.0674 125.771 50.4712 125.11C49.8669 124.445 48.8367 124.389 48.1703 124.996Z" fill="black"/>
<path fill-rule="evenodd" clip-rule="evenodd" d="M118.511 124.998C121.607 127.815 124.695 130.574 127.707 133.48C128.358 134.103 128.377 135.129 127.756 135.775C127.132 136.427 126.101 136.446 125.456 135.825C122.458 132.938 119.398 130.201 116.322 127.404C115.659 126.798 115.613 125.77 116.212 125.11C116.819 124.446 117.848 124.392 118.511 124.998Z" fill="black"/>
<path fill-rule="evenodd" clip-rule="evenodd" d="M81.349 143.194C81.2997 147.383 81.2142 151.527 81.2869 155.716C81.2992 156.617 82.0351 157.329 82.9294 157.313C83.8296 157.299 84.5453 156.555 84.5303 155.659C84.4612 151.494 84.5448 147.385 84.595 143.225C84.603 142.326 83.8839 141.592 82.9946 141.583C82.0968 141.576 81.357 142.295 81.349 143.194Z" fill="black"/>
<defs>
<linearGradient id="paint0_linear_549_1789" x1="83.2788" y1="-24.1258" x2="84.7967" y2="236.102" gradientUnits="userSpaceOnUse">
<stop stop-color="#F2F2F2"/>
<stop offset="1" stop-color="#EFEFEF"/>
</linearGradient>
<linearGradient id="paint1_linear_549_1789" x1="54.6001" y1="74.661" x2="112.278" y2="120.806" gradientUnits="userSpaceOnUse">
<stop stop-color="#E1DCEB"/>
<stop offset="1" stop-color="#B3AFBA"/>
</linearGradient>
</defs>
</svg>
