<svg width="194" height="194" viewBox="0 0 194 194" fill="none" xmlns="http://www.w3.org/2000/svg">
<g clip-path="url(#clip0_549_1828)">
<path d="M96.9999 173.954C139.857 173.954 174.6 139.211 174.6 96.3539C174.6 53.4966 139.857 18.7539 96.9999 18.7539C54.1426 18.7539 19.3999 53.4966 19.3999 96.3539C19.3999 139.211 54.1426 173.954 96.9999 173.954Z" fill="#F2F2F2"/>
<g filter="url(#filter0_d_549_1828)">
<rect x="57.5535" y="41.1006" width="80.534" height="100.252" rx="10.3467" fill="url(#paint0_linear_549_1828)"/>
</g>
<rect x="64.6667" y="54.0342" width="32.3333" height="6.33733" rx="3.16867" fill="black"/>
<rect x="64.6667" y="72.0117" width="64.6667" height="6.33733" rx="3.16867" fill="#D5D5D5"/>
<rect x="64.6667" y="89.9883" width="64.6667" height="6.33733" rx="3.16867" fill="#D5D5D5"/>
<rect x="64.6667" y="107.966" width="64.6667" height="6.33733" rx="3.16867" fill="#D5D5D5"/>
<rect x="64.6667" y="125.943" width="64.6667" height="6.33733" rx="3.16867" fill="#D5D5D5"/>
<g filter="url(#filter1_d_549_1828)">
<path d="M186.337 30.0215H147.485C145.674 30.0215 144.207 31.5661 144.207 33.4714V52.6897C144.207 54.5951 145.674 56.1396 147.485 56.1396H186.337C188.147 56.1396 189.615 54.5951 189.615 52.6897V33.4714C189.615 31.5661 188.147 30.0215 186.337 30.0215Z" fill="white"/>
</g>
<path d="M153.907 47.2082C156.049 47.2082 157.787 45.4711 157.787 43.3282C157.787 41.1854 156.049 39.4482 153.907 39.4482C151.764 39.4482 150.027 41.1854 150.027 43.3282C150.027 45.4711 151.764 47.2082 153.907 47.2082Z" fill="#CCC6D9"/>
<rect x="162.96" y="39.4482" width="20.6933" height="7.76" rx="3.88" fill="#E2F284"/>
<path fill-rule="evenodd" clip-rule="evenodd" d="M119.704 145.865C128.033 145.865 135.774 143.345 142.206 139.027L168.524 164.15L178.069 153.076L152.673 128.833C157.363 122.232 160.121 114.162 160.121 105.448C160.121 83.1264 142.026 65.0312 119.704 65.0312C97.3828 65.0312 79.2876 83.1264 79.2876 105.448C79.2876 127.769 97.3828 145.865 119.704 145.865ZM154.177 105.448C154.177 124.345 138.858 139.665 119.96 139.665C101.062 139.665 85.7429 124.345 85.7429 105.448C85.7429 86.5502 101.062 71.2306 119.96 71.2306C138.858 71.2306 154.177 86.5502 154.177 105.448Z" fill="#CCC6D9"/>
<g filter="url(#filter2_b_549_1828)">
<path d="M119.957 140.326C139.421 140.326 155.2 124.692 155.2 105.406C155.2 86.1205 139.421 70.4863 119.957 70.4863C100.492 70.4863 84.7134 86.1205 84.7134 105.406C84.7134 124.692 100.492 140.326 119.957 140.326Z" fill="white" fill-opacity="0.3"/>
</g>
<path d="M126.05 105.407L134.579 96.9111C135.378 96.0706 135.816 94.9536 135.799 93.7973C135.783 92.6411 135.314 91.5369 134.491 90.7192C133.668 89.9016 132.557 89.435 131.394 89.4186C130.231 89.4023 129.107 89.8374 128.261 90.6315L119.713 99.1274L111.184 90.6315C110.774 90.1998 110.281 89.8543 109.734 89.6154C109.186 89.3765 108.597 89.2491 107.999 89.2407C107.402 89.2323 106.809 89.343 106.255 89.5664C105.701 89.7898 105.198 90.1213 104.776 90.5413C104.353 90.9613 104.02 91.4612 103.795 92.0115C103.57 92.5618 103.459 93.1514 103.467 93.7452C103.475 94.3391 103.604 94.9253 103.844 95.469C104.084 96.0128 104.432 96.5031 104.866 96.9111L113.409 105.407L104.866 113.903C104.432 114.311 104.084 114.801 103.844 115.345C103.604 115.889 103.475 116.475 103.467 117.069C103.459 117.662 103.57 118.252 103.795 118.802C104.02 119.353 104.353 119.853 104.776 120.273C105.198 120.692 105.701 121.024 106.255 121.247C106.809 121.471 107.402 121.582 107.999 121.573C108.597 121.565 109.186 121.437 109.734 121.198C110.281 120.959 110.774 120.614 111.184 120.182L119.732 111.686L128.28 120.182C129.134 120.93 130.242 121.325 131.379 121.289C132.516 121.252 133.596 120.786 134.399 119.985C135.202 119.184 135.668 118.11 135.702 116.979C135.735 115.849 135.334 114.749 134.579 113.903L126.05 105.407Z" fill="black"/>
<path d="M168.522 164.151L178.067 153.077L179.505 154.449C180.9 155.781 181.735 157.641 181.827 159.621C181.918 161.6 181.259 163.537 179.994 165.005C178.729 166.473 176.961 167.352 175.08 167.448C173.199 167.545 171.359 166.851 169.964 165.52L168.526 164.147L168.522 164.151Z" fill="#E1DCEB"/>
<path fill-rule="evenodd" clip-rule="evenodd" d="M36.4166 58.9587C36.4044 58.0365 36.2888 57.1064 36.0574 56.1699C35.246 52.8835 31.6261 50.7736 27.7732 50.2776C23.9219 49.7815 19.9168 50.9104 18.3732 53.7691C17.4903 55.4035 17.3686 56.8122 17.7293 57.9999C18.0886 59.1813 18.941 60.1606 20.0979 60.9238C23.3236 63.0496 28.9728 63.4836 31.55 62.5949C32.7419 62.1831 33.9064 61.687 35.0405 61.1194C34.392 64.8351 31.9762 68.3552 28.752 71.5272C21.745 78.4212 10.8715 83.6536 4.94989 85.5775C4.63174 85.6808 4.45514 86.0338 4.55409 86.3661C4.65304 86.6984 4.99098 86.8844 5.30913 86.7811C11.3479 84.8191 22.4331 79.4753 29.5786 72.4446C33.2701 68.8131 35.9006 64.7254 36.3496 60.4278C44.6947 55.7708 51.5479 47.3219 57.4071 40.2117C57.6248 39.9493 57.5959 39.5503 57.3432 39.3229C57.0905 39.0971 56.7099 39.1257 56.4922 39.3897C50.872 46.2089 44.3491 54.3208 36.4166 58.9587ZM35.2034 59.6344C35.2491 58.5978 35.1516 57.5452 34.8883 56.4831C34.1865 53.6387 30.9608 51.9566 27.6255 51.5273C25.5811 51.2649 23.4789 51.4812 21.8303 52.2507C20.7936 52.7341 19.9396 53.4352 19.4251 54.3892C18.7492 55.6405 18.603 56.7105 18.8801 57.6184C19.1572 58.5326 19.8453 59.2671 20.7419 59.857C23.6814 61.7951 28.8251 62.2069 31.1709 61.3977C32.5546 60.9207 33.8973 60.326 35.2034 59.6344Z" fill="black"/>
<circle cx="184.3" cy="118.987" r="3.88" fill="#CCFD04"/>
<path fill-rule="evenodd" clip-rule="evenodd" d="M37.7553 145.755C38.4478 145.496 39.1764 145.151 39.7383 144.651C40.4057 144.058 40.6771 143.293 40.8594 142.489C41.0934 141.455 41.1869 140.354 41.4706 139.319C41.5757 138.934 41.7778 138.789 41.8646 138.725C42.0839 138.562 42.3055 138.518 42.514 138.534C42.7611 138.553 43.1006 138.652 43.3239 139.088C43.3557 139.15 43.3971 139.245 43.4249 139.375C43.4452 139.471 43.4584 139.769 43.4798 139.893C43.5336 140.196 43.5785 140.499 43.6207 140.804C43.7612 141.819 43.842 142.681 44.2857 143.613C44.8878 144.878 45.4911 145.653 46.3093 145.996C47.1004 146.328 48.0463 146.265 49.2549 146.005C49.3699 145.976 49.4837 145.951 49.5963 145.93C50.1292 145.832 50.6386 146.2 50.7432 146.759C50.8479 147.317 50.5092 147.861 49.9811 147.984C49.8709 148.009 49.7623 148.034 49.6548 148.056C48.0216 148.481 46.131 150 45.0322 151.33C44.6936 151.74 44.1978 152.886 43.692 153.617C43.3187 154.157 42.8992 154.512 42.5471 154.638C42.3111 154.722 42.1121 154.709 41.9478 154.667C41.709 154.605 41.5108 154.469 41.3588 154.252C41.276 154.134 41.1992 153.975 41.1626 153.772C41.1451 153.675 41.1431 153.427 41.1435 153.314C41.0404 152.941 40.9143 152.577 40.8224 152.2C40.6031 151.302 40.1729 150.733 39.6619 149.982C39.184 149.279 38.6707 148.837 37.9181 148.484C37.8202 148.459 37.0303 148.256 36.7513 148.139C36.3438 147.968 36.1496 147.681 36.0792 147.526C35.9594 147.264 35.9471 147.035 35.971 146.844C36.0064 146.562 36.1266 146.321 36.3399 146.126C36.472 146.005 36.6694 145.887 36.9336 145.83C37.1378 145.785 37.6793 145.759 37.7553 145.755ZM42.3895 144.291C42.4261 144.377 42.4651 144.463 42.5065 144.551C43.3883 146.404 44.3744 147.439 45.5731 147.941L45.6133 147.957C44.8114 148.584 44.0855 149.284 43.5308 149.956C43.3024 150.232 42.9999 150.806 42.6732 151.395C42.3763 150.379 41.8908 149.662 41.2804 148.763C40.814 148.078 40.3253 147.562 39.7248 147.141C40.1908 146.89 40.6353 146.595 41.0225 146.25C41.6672 145.677 42.0934 145.013 42.3895 144.291Z" fill="#CCFD04"/>
</g>
<defs>
<filter id="filter0_d_549_1828" x="27.5535" y="31.1006" width="140.534" height="160.252" filterUnits="userSpaceOnUse" color-interpolation-filters="sRGB">
<feFlood flood-opacity="0" result="BackgroundImageFix"/>
<feColorMatrix in="SourceAlpha" type="matrix" values="0 0 0 0 0 0 0 0 0 0 0 0 0 0 0 0 0 0 127 0" result="hardAlpha"/>
<feOffset dy="20"/>
<feGaussianBlur stdDeviation="15"/>
<feComposite in2="hardAlpha" operator="out"/>
<feColorMatrix type="matrix" values="0 0 0 0 0.570833 0 0 0 0 0.570833 0 0 0 0 0.570833 0 0 0 0.19 0"/>
<feBlend mode="normal" in2="BackgroundImageFix" result="effect1_dropShadow_549_1828"/>
<feBlend mode="normal" in="SourceGraphic" in2="effect1_dropShadow_549_1828" result="shape"/>
</filter>
<filter id="filter1_d_549_1828" x="139.68" y="24.2015" width="62.2215" height="42.9315" filterUnits="userSpaceOnUse" color-interpolation-filters="sRGB">
<feFlood flood-opacity="0" result="BackgroundImageFix"/>
<feColorMatrix in="SourceAlpha" type="matrix" values="0 0 0 0 0 0 0 0 0 0 0 0 0 0 0 0 0 0 127 0" result="hardAlpha"/>
<feOffset dx="3.88" dy="2.58667"/>
<feGaussianBlur stdDeviation="4.20333"/>
<feComposite in2="hardAlpha" operator="out"/>
<feColorMatrix type="matrix" values="0 0 0 0 0.104618 0 0 0 0 0.465612 0 0 0 0 0.545833 0 0 0 0.09 0"/>
<feBlend mode="normal" in2="BackgroundImageFix" result="effect1_dropShadow_549_1828"/>
<feBlend mode="normal" in="SourceGraphic" in2="effect1_dropShadow_549_1828" result="shape"/>
</filter>
<filter id="filter2_b_549_1828" x="76.7134" y="62.4863" width="86.4866" height="85.8398" filterUnits="userSpaceOnUse" color-interpolation-filters="sRGB">
<feFlood flood-opacity="0" result="BackgroundImageFix"/>
<feGaussianBlur in="BackgroundImageFix" stdDeviation="4"/>
<feComposite in2="SourceAlpha" operator="in" result="effect1_backgroundBlur_549_1828"/>
<feBlend mode="normal" in="SourceGraphic" in2="effect1_backgroundBlur_549_1828" result="shape"/>
</filter>
<linearGradient id="paint0_linear_549_1828" x1="97.8205" y1="41.1006" x2="97.8205" y2="141.353" gradientUnits="userSpaceOnUse">
<stop stop-color="white"/>
<stop offset="0.71875" stop-color="#FAFAFA"/>
</linearGradient>
<clipPath id="clip0_549_1828">
<rect width="194" height="194" fill="white"/>
</clipPath>
</defs>
</svg>
