<svg width="210" height="181" viewBox="0 0 210 181" fill="none" xmlns="http://www.w3.org/2000/svg">
<path d="M110.991 180.983C153.575 180.983 188.097 146.461 188.097 103.877C188.097 61.2921 153.575 26.7705 110.991 26.7705C68.4062 26.7705 33.8845 61.2921 33.8845 103.877C33.8845 146.461 68.4062 180.983 110.991 180.983Z" fill="url(#paint0_linear_549_1849)"/>
<path d="M64.5077 133.733L96.9076 44.7646L165.232 117.008L85.8768 153.436C73.165 159.271 59.7214 146.876 64.5077 133.733Z" fill="#E1DCEB"/>
<path d="M139.91 72.8633C149.344 82.9144 156.948 92.8791 161.617 100.859C163.953 104.852 165.545 108.332 166.271 111.068C166.633 112.437 166.774 113.602 166.693 114.545C166.612 115.484 166.313 116.179 165.815 116.647C165.317 117.114 164.604 117.369 163.661 117.39C162.716 117.411 161.562 117.197 160.219 116.748C157.534 115.851 154.162 114.042 150.325 111.458C142.657 106.292 133.193 98.0727 123.76 88.0216C114.326 77.9704 106.722 68.0057 102.053 60.0254C99.7168 56.0329 98.1246 52.5529 97.3994 49.8165C97.0368 48.448 96.8956 47.2824 96.9768 46.3403C97.0578 45.4009 97.3571 44.7058 97.8552 44.2383C98.3534 43.7708 99.066 43.5161 100.009 43.4948C100.954 43.4734 102.108 43.688 103.451 44.1366C106.136 45.0336 109.508 46.843 113.345 49.4272C121.013 54.5926 130.477 62.8122 139.91 72.8633Z" fill="black" stroke="black" stroke-width="0.656223"/>
<mask id="mask0_549_1849" style="mask-type:alpha" maskUnits="userSpaceOnUse" x="63" y="44" width="103" height="111">
<path d="M64.5077 133.734L96.9076 44.7656L165.232 117.008L85.8768 153.437C73.165 159.272 59.7214 146.877 64.5077 133.734Z" fill="#E1DCEB"/>
</mask>
<g mask="url(#mask0_549_1849)">
<path fill-rule="evenodd" clip-rule="evenodd" d="M95.3886 103.925C81.6997 85.9978 74.7735 64.6255 72.5396 50.2767L83.5626 48.5605C85.5734 61.4763 91.9203 81.0008 104.255 97.1545C116.474 113.156 134.35 125.634 159.845 125.634V136.79C130.092 136.79 109.194 122.004 95.3886 103.925Z" fill="black"/>
<path fill-rule="evenodd" clip-rule="evenodd" d="M96.8579 100.497C83.1689 82.57 76.2427 61.1977 74.0088 46.849L85.0318 45.1328C87.0426 58.0486 93.3895 77.5731 105.724 93.7267C117.943 109.728 135.82 122.207 161.314 122.207V133.362C131.561 133.362 110.663 118.576 96.8579 100.497Z" fill="white"/>
<path fill-rule="evenodd" clip-rule="evenodd" d="M79.2258 126.456C65.5368 108.529 58.6107 87.1567 56.3767 72.808L67.3997 71.0918C69.4105 84.0076 75.7574 103.532 88.0923 119.686C100.311 135.687 118.187 148.166 143.682 148.166V159.321C113.929 159.321 93.0308 144.535 79.2258 126.456Z" fill="white"/>
</g>
<circle cx="127.069" cy="140.951" r="19.6867" fill="black"/>
<path fill-rule="evenodd" clip-rule="evenodd" d="M135.035 134.979C135.797 135.755 135.786 137.001 135.011 137.763L125.665 146.95C124.899 147.703 123.671 147.703 122.905 146.95L119.126 143.236C118.351 142.474 118.34 141.228 119.103 140.452C119.865 139.677 121.111 139.666 121.887 140.429L124.285 142.786L132.251 134.955C133.026 134.193 134.273 134.204 135.035 134.979Z" fill="white"/>
<path d="M165.565 46.9631L165.565 46.9629C166.73 44.0045 167.194 41.0539 167.681 37.9613C167.764 37.4343 167.847 36.9032 167.935 36.3673L165.565 46.9631ZM165.565 46.9631C165.367 47.4681 164.794 47.7178 164.29 47.5184L164.288 47.5176C163.783 47.3215 163.533 46.7506 163.732 46.2463L163.732 46.2462M165.565 46.9631L163.732 46.2462M163.732 46.2462C164.843 43.4217 165.282 40.5932 165.727 37.7212C165.813 37.1662 165.9 36.6096 165.991 36.0511C166.079 35.5146 166.586 35.1503 167.122 35.2386C167.659 35.3271 168.023 35.8319 167.935 36.3673L163.732 46.2462Z" fill="black" stroke="black" stroke-width="0.656223"/>
<path d="M172.337 54.8545L172.336 54.8547C171.891 55.1642 171.276 55.0529 170.966 54.6079C170.656 54.1649 170.765 53.5531 171.212 53.243C177.819 48.669 184.292 42.5095 189.107 36.0568L189.107 36.0566C189.43 35.6223 190.048 35.5321 190.485 35.8556L190.68 35.5917L190.485 35.8556C190.921 36.1774 191.011 36.7928 190.688 37.2278C185.754 43.8411 179.114 50.16 172.337 54.8545Z" fill="black" stroke="black" stroke-width="0.656223"/>
<path d="M190.523 59.1773L190.522 59.1767C190.373 58.6559 189.827 58.3536 189.303 58.5016C184.42 59.8985 178.952 60.7098 173.922 59.1749L173.922 59.1748C173.401 59.0158 172.851 59.3094 172.693 59.8248L172.693 59.825C172.535 60.34 172.827 60.8915 173.347 61.0504L190.523 59.1773ZM190.523 59.1773C190.672 59.6925 190.372 60.237 189.848 60.389M190.523 59.1773L189.848 60.389M189.848 60.389C184.535 61.9069 178.682 62.6791 173.347 61.0504L189.848 60.389ZM189.214 58.1861C184.352 59.577 178.958 60.3683 174.018 58.861C173.325 58.6493 172.59 59.0395 172.379 59.7287L189.214 58.1861Z" fill="black" stroke="black" stroke-width="0.656223"/>
<circle cx="173.66" cy="70.7371" r="3.93734" fill="#E2F284"/>
<circle cx="140.849" cy="30.0526" r="3.93734" fill="#E2F284"/>
<path d="M148.423 47.4185C148.084 46.0115 146.082 46.0115 145.743 47.4185L145.303 49.2409C145.181 49.7437 144.789 50.1363 144.286 50.2577L142.464 50.6976C141.057 51.0372 141.057 53.0385 142.464 53.3781L144.286 53.818C144.789 53.9394 145.181 54.3319 145.303 54.8347L145.743 56.6572C146.082 58.0641 148.084 58.0641 148.423 56.6572L148.863 54.8347C148.985 54.3319 149.377 53.9394 149.88 53.818L151.702 53.3781C153.109 53.0385 153.109 51.0372 151.702 50.6976L149.88 50.2577C149.377 50.1363 148.985 49.7437 148.863 49.2409L148.423 47.4185Z" fill="#E2F284"/>
<path fill-rule="evenodd" clip-rule="evenodd" d="M131.639 17.1307C132.037 18.1426 131.539 19.2854 130.527 19.6833C127.639 20.819 123.938 24.4772 121.466 29.0307C119.585 32.4966 118.672 35.997 119.055 38.8616C120.211 37.212 121.595 35.8588 123.199 34.9895C126.076 33.4313 129.358 33.5967 132.536 35.7621C135.312 37.6541 136.444 40.3463 136.144 43.0288C135.858 45.5936 134.293 47.9122 132.171 49.3688C130.016 50.8471 127.156 51.5289 124.205 50.6253C122.533 50.1131 120.929 49.1227 119.46 47.6187C118.06 53.0708 118.111 59.9001 120.425 65.9402C120.814 66.9555 120.307 68.0939 119.291 68.483C118.276 68.8721 117.138 68.3644 116.749 67.3492C113.696 59.3834 114.093 50.2859 116.582 43.66C116.511 43.5322 116.441 43.4027 116.371 43.2714C113.753 38.3271 115.321 32.1003 118.006 27.1525C120.712 22.1665 125.003 17.6247 129.086 16.019C130.098 15.6212 131.241 16.1189 131.639 17.1307ZM121.003 43.3215C122.49 45.4336 124.032 46.4544 125.358 46.8605C127.028 47.3719 128.656 47.0051 129.943 46.1223C131.261 45.2177 132.089 43.8624 132.231 42.5914C132.36 41.4381 131.957 40.1326 130.318 39.0158C128.241 37.6002 126.535 37.6604 125.075 38.4516C123.618 39.2405 122.176 40.8915 121.003 43.3215Z" fill="#E3E3E3"/>
<path fill-rule="evenodd" clip-rule="evenodd" d="M195.19 94.1263C174.555 86.4565 158.763 95.9936 153.656 101.388C152.41 102.704 150.334 102.761 149.018 101.515C147.702 100.269 147.645 98.1924 148.891 96.8765C155.376 90.0261 173.836 79.1884 197.476 87.9752C199.175 88.6065 200.04 90.4953 199.409 92.1939C198.777 93.8925 196.889 94.7576 195.19 94.1263Z" fill="#CCC6D9"/>
<path fill-rule="evenodd" clip-rule="evenodd" d="M174.197 101.02C174.658 100.852 175.142 100.628 175.516 100.303C175.96 99.9177 176.14 99.4214 176.262 98.899C176.417 98.2278 176.479 97.5128 176.668 96.8406C176.738 96.5909 176.872 96.4965 176.93 96.4546C177.076 96.3489 177.223 96.3206 177.362 96.3312C177.526 96.3434 177.752 96.4073 177.901 96.6904C177.922 96.731 177.949 96.7927 177.968 96.8773C177.981 96.9393 177.99 97.1332 178.004 97.2131C178.04 97.41 178.07 97.6069 178.098 97.8049C178.191 98.4639 178.245 99.0235 178.54 99.6289C178.941 100.451 179.342 100.954 179.886 101.176C180.412 101.392 181.041 101.351 181.845 101.182C181.921 101.163 181.997 101.147 182.072 101.134C182.426 101.07 182.765 101.309 182.835 101.672C182.904 102.034 182.679 102.388 182.328 102.467C182.255 102.484 182.182 102.5 182.111 102.514C181.025 102.79 179.767 103.777 179.037 104.64C178.811 104.906 178.482 105.651 178.145 106.125C177.897 106.476 177.618 106.707 177.384 106.788C177.227 106.843 177.095 106.835 176.985 106.807C176.827 106.767 176.695 106.678 176.594 106.538C176.539 106.461 176.488 106.358 176.463 106.226C176.452 106.163 176.45 106.002 176.45 105.929C176.382 105.686 176.298 105.45 176.237 105.205C176.091 104.622 175.805 104.253 175.465 103.765C175.147 103.308 174.806 103.021 174.306 102.792C174.24 102.776 173.715 102.644 173.53 102.568C173.259 102.457 173.129 102.27 173.083 102.17C173.003 102 172.995 101.851 173.011 101.727C173.034 101.544 173.114 101.387 173.256 101.261C173.344 101.182 173.475 101.106 173.651 101.069C173.787 101.04 174.147 101.023 174.197 101.02ZM177.279 100.069C177.303 100.125 177.329 100.181 177.357 100.238C177.943 101.442 178.599 102.114 179.396 102.44L179.423 102.45C178.89 102.857 178.407 103.312 178.038 103.748C177.886 103.927 177.685 104.3 177.468 104.682C177.27 104.023 176.948 103.557 176.542 102.973C176.231 102.528 175.906 102.193 175.507 101.92C175.817 101.757 176.113 101.565 176.37 101.342C176.799 100.969 177.082 100.538 177.279 100.069Z" fill="#E3E3E3"/>
<path d="M59.9917 102.821L59.9918 102.821C60.435 102.422 60.4732 101.736 60.0742 101.29C59.6774 100.842 58.9916 100.803 58.5472 101.204C55.5848 103.87 53.8962 107.177 53.4084 111.128C53.3337 111.722 53.7571 112.265 54.3474 112.34L54.3478 112.34C54.9425 112.415 55.484 111.992 55.5548 111.396L55.229 111.358L55.5546 111.398C55.977 107.975 57.4294 105.126 59.9917 102.821Z" fill="black" stroke="black" stroke-width="0.656223"/>
<path d="M54.6579 137.113L54.9838 137.152C55.0708 136.418 55.1959 135.693 55.3231 134.956C55.3417 134.848 55.3603 134.74 55.3788 134.632L55.3789 134.631C55.8551 131.816 56.6245 129.12 57.5281 126.398L57.2166 126.294L57.5281 126.398C57.7707 125.666 58.0117 124.933 58.253 124.198C60.8825 116.192 63.5537 108.059 68.8695 101.518L68.8696 101.518C69.2448 101.056 69.1795 100.372 68.7161 99.9919C68.2542 99.61 67.5728 99.6806 67.1938 100.143L67.193 100.144C61.6434 106.971 58.8534 115.451 56.1537 123.656C55.9277 124.343 55.7024 125.027 55.4761 125.709L55.4761 125.709C54.8913 127.472 54.3584 129.232 53.9202 131.024C53.3523 127.264 52.4896 122.61 51.1878 118.504C50.5144 116.379 49.7124 114.394 48.7735 112.731C47.8365 111.071 46.7516 109.712 45.503 108.862L45.503 108.862C37.7513 103.591 28.6666 103.575 23.302 108.871L23.3019 108.871C22.8322 109.335 22.3878 109.827 21.9754 110.344C17.8478 105.383 10.8771 104.293 5.44507 107.93C4.94609 108.263 4.81606 108.936 5.14422 109.433L5.14422 109.433L5.14542 109.435C5.47788 109.932 6.1476 110.07 6.64702 109.736L6.6474 109.736C11.3082 106.616 17.3268 107.703 20.6927 112.213C20.2633 112.95 19.8934 113.724 19.5971 114.53C19.4524 114.923 19.2067 115.773 19.2604 116.489C19.3167 117.27 19.6967 117.947 20.4943 118.205L20.4945 118.205C21.4277 118.506 22.1566 118.358 22.6943 117.971C23.2069 117.603 23.5293 117.004 23.6711 116.302L23.6712 116.302C23.8063 115.631 23.7758 114.836 23.667 114.096C23.5692 113.431 23.4047 112.789 23.2225 112.29C23.6989 111.622 24.2339 110.997 24.8187 110.42C29.4343 105.866 37.3718 105.953 44.2922 110.659C45.4493 111.446 46.4561 112.818 47.3354 114.577C48.2122 116.331 48.9471 118.439 49.5765 120.662C51.282 126.683 52.107 133.486 52.4967 136.699C52.5551 137.181 52.6038 137.582 52.6441 137.888L52.6442 137.889C52.6844 138.187 52.7331 138.427 52.7784 138.603C52.801 138.691 52.8233 138.766 52.8441 138.825C52.8613 138.874 52.8856 138.938 52.9178 138.989C53.191 139.427 53.5794 139.499 53.8181 139.506L53.8216 139.506C54.1574 139.512 54.419 139.405 54.6193 139.256L54.6209 139.255C54.8937 139.049 55.0852 138.735 55.1274 138.32L55.1276 138.318C55.149 138.091 55.1149 137.812 55.0667 137.551L55.0661 137.548C55.0559 137.496 55.0437 137.445 55.0326 137.399C55.0301 137.389 55.0277 137.379 55.0254 137.37C55.0168 137.335 55.0093 137.305 55.0026 137.274C54.9941 137.236 54.9887 137.207 54.9859 137.183C54.983 137.159 54.984 137.15 54.9839 137.151L54.6579 137.113ZM54.6579 137.113C54.6473 137.206 54.6767 137.326 54.7072 137.45C54.7204 137.503 54.7337 137.558 54.7441 137.611L55.0554 134.577C55.037 134.684 55.0184 134.792 54.9999 134.899C54.8728 135.636 54.7461 136.37 54.6579 137.113ZM21.439 116.201C21.435 116.201 21.429 116.201 21.4204 116.201C21.419 116.201 21.4176 116.201 21.4162 116.201L21.439 116.201ZM21.439 116.201C21.4485 116.192 21.4645 116.171 21.4835 116.124C21.5086 116.062 21.5284 115.981 21.5512 115.868L21.5513 115.868C21.5848 115.704 21.6031 115.522 21.6087 115.331C21.5343 115.543 21.4334 115.885 21.4163 116.195L21.439 116.201Z" fill="black" stroke="black" stroke-width="0.656223"/>
<defs>
<linearGradient id="paint0_linear_549_1849" x1="110.396" y1="1.66283" x2="111.976" y2="272.448" gradientUnits="userSpaceOnUse">
<stop stop-color="#F2F2F2"/>
<stop offset="1" stop-color="#EFEFEF"/>
</linearGradient>
</defs>
</svg>
